<svg width="24" height="31" viewBox="0 0 24 31" fill="none" xmlns="http://www.w3.org/2000/svg">
<g filter="url(#filter0_d_18029_29938)">
<path d="M4.20605 13.383C4.33165 10.6106 5.50035 8.16284 7.97308 6.57951C11.4161 4.3749 14.89 2.22752 18.3483 0.051209C18.4914 -0.0387609 18.533 -0.0129032 18.5913 0.150445C19.4245 2.48766 18.6236 4.95767 17.126 6.40765C16.9957 6.53374 16.8486 6.63429 16.6975 6.72915C14.8976 7.85858 13.0981 8.98885 11.2991 10.12C11.042 10.2816 10.9132 10.5495 10.9534 10.8228C10.9972 11.1218 11.2193 11.3695 11.4929 11.4235C11.6695 11.4584 11.8194 11.38 11.9655 11.2883C13.7304 10.1803 15.4953 9.07229 17.26 7.96418C17.4279 7.85875 17.5985 7.7582 17.7622 7.64569C17.8566 7.5807 17.8972 7.60349 17.9343 7.71224C18.1925 8.47126 18.3305 9.25219 18.2791 10.0628C18.1664 11.8394 17.4542 13.273 16.1157 14.2934C15.4725 14.7839 14.761 15.1685 14.0799 15.6C13.7738 15.7939 13.4752 16.0047 13.1577 16.1733C12.437 16.5561 12.0875 17.2293 11.9281 18.0326C11.5984 19.694 12.8082 21.2847 14.3716 21.2701C14.458 21.2693 14.5442 21.2532 14.6304 21.2429C14.7071 21.2336 14.7672 21.2668 14.7871 21.3448C14.806 21.4184 14.7589 21.4703 14.6985 21.4949C14.4989 21.5763 14.3006 21.6637 14.0969 21.7308C10.0965 23.0503 5.76212 20.5328 4.54593 16.1846C4.31869 15.3719 4.2239 14.5376 4.20605 13.383Z" fill="white"/>
</g>
<defs>
<filter id="filter0_d_18029_29938" x="-6.1512e-05" y="0" width="23.1339" height="30.4943" filterUnits="userSpaceOnUse" color-interpolation-filters="sRGB">
<feFlood flood-opacity="0" result="BackgroundImageFix"/>
<feColorMatrix in="SourceAlpha" type="matrix" values="0 0 0 0 0 0 0 0 0 0 0 0 0 0 0 0 0 0 127 0" result="hardAlpha"/>
<feOffset dy="4.20612"/>
<feGaussianBlur stdDeviation="2.10306"/>
<feComposite in2="hardAlpha" operator="out"/>
<feColorMatrix type="matrix" values="0 0 0 0 0 0 0 0 0 0 0 0 0 0 0 0 0 0 0.25 0"/>
<feBlend mode="normal" in2="BackgroundImageFix" result="effect1_dropShadow_18029_29938"/>
<feBlend mode="normal" in="SourceGraphic" in2="effect1_dropShadow_18029_29938" result="shape"/>
</filter>
</defs>
</svg>
