<svg width="24" height="31" viewBox="0 0 24 31" fill="none" xmlns="http://www.w3.org/2000/svg">
<g filter="url(#filter0_d_18029_29937)">
<path d="M18.9277 13.383C18.8021 10.6106 17.6334 8.16284 15.1607 6.57951C11.7177 4.3749 8.24379 2.22752 4.7855 0.051209C4.64241 -0.0387609 4.60074 -0.0129032 4.54249 0.150445C3.70929 2.48766 4.5102 4.95767 6.00779 6.40765C6.13804 6.53374 6.28522 6.63429 6.43625 6.72915C8.23623 7.85858 10.0357 8.98885 11.8347 10.12C12.0918 10.2816 12.2206 10.5495 12.1804 10.8228C12.1366 11.1218 11.9145 11.3695 11.6409 11.4235C11.4643 11.4584 11.3144 11.38 11.1683 11.2883C9.40334 10.1803 7.63849 9.07229 5.87374 7.96418C5.7059 7.85875 5.5353 7.7582 5.37161 7.64569C5.27716 7.5807 5.23658 7.60349 5.19951 7.71224C4.94131 8.47126 4.80328 9.25219 4.85468 10.0628C4.96738 11.8394 5.6796 13.273 7.01804 14.2934C7.6613 14.7839 8.37277 15.1685 9.05391 15.6C9.35994 15.7939 9.65861 16.0047 9.9761 16.1733C10.6968 16.5561 11.0463 17.2293 11.2057 18.0326C11.5354 19.694 10.3256 21.2847 8.76215 21.2701C8.67581 21.2693 8.58959 21.2532 8.50343 21.2429C8.42665 21.2336 8.36656 21.2668 8.34664 21.3448C8.32782 21.4184 8.37485 21.4703 8.43528 21.4949C8.63489 21.5763 8.83318 21.6637 9.03693 21.7308C13.0373 23.0503 17.3717 20.5328 18.5879 16.1846C18.8151 15.3719 18.9099 14.5376 18.9277 13.383Z" fill="white"/>
</g>
<defs>
<filter id="filter0_d_18029_29937" x="-6.1512e-05" y="0" width="23.1339" height="30.4943" filterUnits="userSpaceOnUse" color-interpolation-filters="sRGB">
<feFlood flood-opacity="0" result="BackgroundImageFix"/>
<feColorMatrix in="SourceAlpha" type="matrix" values="0 0 0 0 0 0 0 0 0 0 0 0 0 0 0 0 0 0 127 0" result="hardAlpha"/>
<feOffset dy="4.20612"/>
<feGaussianBlur stdDeviation="2.10306"/>
<feComposite in2="hardAlpha" operator="out"/>
<feColorMatrix type="matrix" values="0 0 0 0 0 0 0 0 0 0 0 0 0 0 0 0 0 0 0.25 0"/>
<feBlend mode="normal" in2="BackgroundImageFix" result="effect1_dropShadow_18029_29937"/>
<feBlend mode="normal" in="SourceGraphic" in2="effect1_dropShadow_18029_29937" result="shape"/>
</filter>
</defs>
</svg>
