<svg width="16" height="16" viewBox="0 0 16 16" fill="none" xmlns="http://www.w3.org/2000/svg">
<path d="M14.7216 14.7216L10.165 10.165M1.05176 6.36782C1.05176 7.06594 1.18926 7.75722 1.45642 8.40219C1.72358 9.04717 2.11515 9.6332 2.6088 10.1268C3.10244 10.6205 3.68848 11.0121 4.33345 11.2792C4.97843 11.5464 5.66971 11.6839 6.36782 11.6839C7.06594 11.6839 7.75722 11.5464 8.40219 11.2792C9.04717 11.0121 9.6332 10.6205 10.1268 10.1268C10.6205 9.6332 11.0121 9.04717 11.2792 8.40219C11.5464 7.75722 11.6839 7.06594 11.6839 6.36782C11.6839 5.66971 11.5464 4.97843 11.2792 4.33345C11.0121 3.68848 10.6205 3.10244 10.1268 2.6088C9.6332 2.11515 9.04717 1.72358 8.40219 1.45642C7.75722 1.18926 7.06594 1.05176 6.36782 1.05176C5.66971 1.05176 4.97843 1.18926 4.33345 1.45642C3.68848 1.72358 3.10244 2.11515 2.6088 2.6088C2.11515 3.10244 1.72358 3.68848 1.45642 4.33345C1.18926 4.97843 1.05176 5.66971 1.05176 6.36782Z" stroke="#3783F1" stroke-width="2.10306" stroke-linecap="round" stroke-linejoin="round"/>
</svg>
