<svg width="10" height="14" viewBox="0 0 10 14" fill="none" xmlns="http://www.w3.org/2000/svg">
<path d="M9.46387 8.2847C9.38313 6.56848 8.63182 5.05319 7.04221 4.07303C4.82886 2.70827 2.59562 1.37894 0.372431 0.0317008C0.280445 -0.0239949 0.253656 -0.00798768 0.216211 0.0931327C-0.31942 1.53998 0.195453 3.06903 1.15819 3.96664C1.24192 4.0447 1.33654 4.10694 1.43363 4.16566C2.59076 4.86484 3.74756 5.56453 4.90405 6.26473C5.06934 6.36481 5.15211 6.53062 5.12632 6.69983C5.09812 6.88491 4.95537 7.03823 4.77947 7.07172C4.66595 7.09331 4.56956 7.04478 4.47565 6.988C3.34104 6.30211 2.2065 5.61618 1.07201 4.93021C0.964118 4.86494 0.854446 4.80269 0.749214 4.73304C0.688496 4.69281 0.662409 4.70692 0.63858 4.77424C0.472592 5.24411 0.383863 5.72754 0.416905 6.22935C0.489354 7.32915 0.947208 8.2166 1.80764 8.84829C2.22116 9.15192 2.67853 9.39005 3.11641 9.65717C3.31314 9.77717 3.50514 9.90767 3.70924 10.012C4.17257 10.249 4.39724 10.6657 4.4997 11.163C4.71164 12.1915 3.93391 13.1762 2.92885 13.1672C2.87335 13.1667 2.81792 13.1567 2.76253 13.1503C2.71317 13.1446 2.67454 13.1651 2.66174 13.2134C2.64964 13.259 2.67987 13.2912 2.71872 13.3064C2.84704 13.3568 2.97451 13.4108 3.10549 13.4524C5.67716 14.2693 8.46354 12.7108 9.24537 10.0191C9.39146 9.51594 9.4524 8.99944 9.46387 8.2847Z" fill="#4B5E4B"/>
</svg>
